<!-- Created with Inkscape (http://www.inkscape.org/) -->
<svg xmlns:rdf="http://www.w3.org/1999/02/22-rdf-syntax-ns#" xmlns="http://www.w3.org/2000/svg" height="574.02" width="574.02" version="1.0" xmlns:cc="http://creativecommons.org/ns#" xmlns:dc="http://purl.org/dc/elements/1.1/">
 <metadata>
  <rdf:RDF>
   <cc:Work rdf:about="">
    <dc:format>image/svg+xml</dc:format>
    <dc:type rdf:resource="http://purl.org/dc/dcmitype/StillImage"/>
    <dc:title/>
   </cc:Work>
  </rdf:RDF>
 </metadata>
 <path d="m287.06,10.26c-115.67-1.7564-226.12,77.64-262.42,187.29-36.875,102.57-5.6621,224.74,75.761,297.1,80.574,75.363,207.63,94.267,306.53,45.072,101.62-47.36,167.2-160.66,157-272.49-7-111.07-87.78-212.49-194.33-244.45-26.67-8.33-54.61-12.53-82.54-12.52z" fill="#014377"/>
 <path d="m573.57,287.02c0,158.27-128.3,286.58-286.56,286.58-158.27-0.01-286.56-128.31-286.56-286.58s128.3-286.58,286.56-286.58c158.27,0,286.56,128.3,286.56,286.58z" stroke-dashoffset="0" stroke="#000000" stroke-linecap="square" stroke-miterlimit="4" stroke-dasharray="none" stroke-width="0.88582665" fill="none"/>
 <g fill="#ffffff" transform="translate(623.01489,0.46072157)">
  <path d="m-336.06,75.469c-16.496-0.04411-33.033,2.2536-48.469,7-6.6667,2.05-13.05,4.3894-14.156,5.2188-1.1059,0.82938-4.9388,2.6704-8.5312,4.0625s-8.6215,3.9089-11.188,5.5938c-2.566,1.6849-8.0194,5.246-12.125,7.9375-16.256,10.657-33.751,29.833-46.438,50.906-13.917,23.117-23.692,63.906-20.938,87.312l1.125,9.6562-6.0625,1.1562c-6.7102,1.2703-14.69,7.3372-18.188,13.844-3.0983,5.7636-2.6443,30.202,0.8125,43.219,7.0471,26.536,25.922,56.473,38.875,61.719,3.8698,1.5672,9.0065,2.8438,11.438,2.8438,3.6238,0,4.6509,1.2709,5.7188,6.9375,2.9803,15.816,13.248,39.832,24.531,57.406,6.4371,10.026,25.419,30.353,35.812,38.375,21.773,16.806,57.367,22.893,96.469,16.469,19.998-3.2858,34.744-11.594,53.25-29.969,21.733-21.58,37.248-48.172,45.688-78.344,2.7345-9.7764,3.3602-10.566,9.5312-11.719,10.981-2.0509,14.293-4.4019,24.031-17.188,10.652-13.985,18.53-29.84,22.906-46.031,3.9101-14.467,4.1156-37.237,0.40625-44.531-3.3909-6.6678-13.805-14-19.906-14-4.2325,0-4.4185-0.45711-3.3125-8.8438,1.8504-14.031-2.2284-42.899-8.6562-61.125-14.586-41.358-43.378-73.148-84.094-92.875-20.407-9.8875-44.421-14.967-68.531-15.031zm0.875,19c19.288,0,31.656,0.78177,34.531,2.1875,2.4632,1.2043,9.0384,3.6217,14.625,5.375,23.969,7.5225,49.468,26.76,66.281,50.031,16.947,23.457,24.817,45.692,26.344,74.188l1.0312,18.719-13.188,6.1562c-13.024,6.0861-13.156,6.2383-13.156,13.438v7.2812l12.219-6.6875,12.219-6.6875-1.25,4.9375c-0.87142,3.4566-0.25337,6.0149,2.0625,8.5625,3.9426,4.3372,8.1557,4.6559,13.094,0.9375,24.222-18.24,14.301,50.857-11.156,77.688-5.3853,5.6759-7.663,6.9066-10.938,5.875-14.699-4.6307-17.117-3.1438-20.031,12.25-7.8252,41.328-38.471,87.909-67.438,102.5-15.28,7.6966-42.662,10.402-69.688,6.8438-13.751-1.8105-19.501-3.9463-29.531-10.938-29.867-20.818-50.969-56.023-61.875-103.25-2.3245-10.066-7.9235-12.874-15.812-7.9688-5.5046,3.4225-11.364-0.72892-20.438-14.469-12.808-19.395-20.407-45.237-18-61.219,1.525-10.124,5.9853-12.134,13.938-6.2812,5.3796,3.9597,5.7212,3.9815,10.531,0.84375,4.2293-2.7588,4.8092-4.1831,3.9375-9.5312l-1-6.2812,6.5,2.6875c3.5851,1.4913,9.0073,4.4813,12.031,6.625,5.0132,3.5538,5.5852,3.6097,6.6875,0.75,2.5652-6.6551-1.8895-12.363-14.75-18.875l-12.594-6.375v-8.0938c0-26.014,8.6969-55.77,22.5-77.031,18.869-29.064,43.371-47.558,79.219-59.75,11.652-3.963,16.294-4.4375,43.094-4.4375z"/>
  <path d="m-386.56,253.75c-18.621,0.16581-37.287,0.20712-55.842,1.9259-6.0398-0.2469-5.2944,7.0919-5.6371,11.186-0.2847,15.595-0.52795,31.222,0.26384,46.805,0.17147,10.016,5.6502,19.086,12.989,25.589,16.312,17.18,64.255,16.298,78.453-12.161,3.0337-7.6361,2.5483-16.082,3.0325-24.151,0.30163-15.377-0.0694-30.756-0.13435-46.133-3.4944-1.5063-7.0971-2.797-10.975-2.6435-7.376-0.37922-14.766-0.41194-22.15-0.41902zm-7.1562,11.125c9.501,0.10725,19,0.35928,28.5,0.53125,0.16736,15.027,0.95464,30.06,0.42947,45.085,0.0627,10.422-7.0488,19.595-16.028,24.245-15.388,8.2451-36.572,6.5849-48.799-6.5239-6.8992-7.924-6.7413-19.079-7.4779-28.958-0.39423-9.967-0.59993-19.94-0.90588-29.911,10.195-1.9502,20.411-3.9963,30.834-4.16,4.4791-0.21005,8.9632-0.31099,13.447-0.30878zm-5.125,5.1875c-10.507,0.16102-21.091-0.13931-31.531,1.125-3.974,3.23-2.2632,9.53-2.9244,14.067,0.16776,10.073-0.84943,20.464,2.1241,30.236,2.1495,6.0331,5.4601,12.336,11.754,14.849,5.8399,2.5299,11.831,5.8368,18.436,4.981,9.4597-0.8293,20.209-2.6421,26.62-10.368,6.4938-8.5052,6.2045-19.928,6.0163-30.098-0.38116-8.2803-1.2385-16.529-1.8706-24.792h-28.625z"/>
  <path d="m-287.53,254.28c-9.3825,0.0931-18.804-0.16098-28.151,0.77357-3.0122,3.0742-1.6968,9.0374-2.496,13.307-0.77364,16.842-1.3014,33.759-0.0513,50.588,1.8223,11.43,10.36,20.85,20.2,26.418,12.319,6.0897,37.673,5.4424,48.79,1.7966,8.3927-3.9198,15.469-10.482,20.817-17.981,3.8478-6.1915,2.8684-13.892,3.4176-20.845,0.23101-16.257,1.1359-32.564-0.17227-48.793,0.0425-5.7193-7.581-3.0936-11.248-4.1369-17.021-0.82667-34.068-1.0624-51.107-1.1277zm-18.438,10.188c21.588-0.0147,43.322-0.43443,64.665,3.3428,2.6847,0.41699,5.3694,0.83397,8.0541,1.251-0.56974,14.065-0.50282,28.171-1.8276,42.193-0.58652,6.8784-3.2387,13.832-8.8675,18.143-5.2205,4.201-10.814,9.0166-17.897,9.1249-7.9916,0.2311-16.122,0.77627-24.035-0.61177-5.7963-1.6922-10.653-5.769-14.751-10.076-7.3914-8.5937-7.4024-20.649-7.6757-31.356,0.13207-10.685-0.21028-21.555,2.3349-32.011zm3.25,5.5938c-0.0609,13.836-0.88968,27.696,0.0358,41.514,0.2932,6.8099,4.2067,12.622,8.058,17.955,7.7951,2.7975,15.771,5.7913,24.212,5.2827,9.03-0.27864,18.583-3.0582,25.014-9.6718,5.4008-6.9312,5.2673-16.229,6.1029-24.563,0.33464-8.1861,1.3345-16.434,0.41278-24.607-0.70126-5.8078-7.8805-4.8233-12.1-5.4357-17.229-0.79983-34.493-0.35996-51.736-0.47455z"/>
  <path d="m-452.14,306.75c-0.24135-23.501-1.82-29.485-9.0602-34.339-3.5196-2.3598-7.0329-3.646-7.8074-2.8582-2.3927,2.4339,6.472,42.548,10.344,46.808,1.9295,2.1226,4.2178,3.8593,5.0852,3.8593,0.86732,0,1.5147-6.0614,1.4386-13.47z"/>
  <path d="m-213.57,316.03c4.573-4.8464,13.232-43.279,10.389-46.109-1.0105-1.006-4.4793,0.20283-8.6202,3.0041-6.7421,4.5611-6.9296,4.9993-6.9454,16.233-0.009,6.3497-0.54579,15.934-1.193,21.299-1.2993,10.769,0.21603,12.095,6.3693,5.5737z"/>
  <path d="m-323.24,283.16c0-4.5218-6.7759-9.3949-13.063-9.3949-6.2875,0-13.063,4.8731-13.063,9.3949,0,3.2315,1.3712,3.6105,13.063,3.6105s13.063-0.37898,13.063-3.6105z"/>
  <path d="m-323.24,268.42c0-5.2261-4.7664-8.1658-13.24-8.1658-8.3443,0-14.062,4.0661-12.267,8.7233,0.86931,2.2553,3.9393,2.9309,13.319,2.9309,10.68,0,12.189-0.43189,12.189-3.4883z"/>
  <path d="m-420.59,250.34c5.475-0.56688,9.5582-1.4253,9.0738-1.9076-0.48445-0.48231-11.682-2.0125-24.884-3.4004s-26.422-3.1325-29.379-3.8768c-7.9319-1.9971-5.5551,1.8852,4.3339,7.0792,8.5635,4.4977,14.698,4.8139,40.855,2.1057z"/>
  <path d="m-211.83,248.59c11.815-6.2505,14.445-9.0755,7.097-7.6212-3.0792,0.60939-13.996,1.9921-24.26,3.0727-37.114,3.9074-39.42,5.5178-10.709,7.478,9.9955,0.68241,18.339,1.3694,18.541,1.5266,0.20227,0.15718,4.4012-1.848,9.331-4.4561z"/>
 </g>
</svg>
