<!-- Created with Inkscape (http://www.inkscape.org/) -->
<svg xmlns:rdf="http://www.w3.org/1999/02/22-rdf-syntax-ns#" xmlns="http://www.w3.org/2000/svg" height="574.02" width="574.02" version="1.0" xmlns:cc="http://creativecommons.org/ns#" xmlns:dc="http://purl.org/dc/elements/1.1/">
 <defs></defs>
 <metadata>
  <rdf:RDF>
   <cc:Work rdf:about="">
    <dc:format>image/svg+xml</dc:format>
    <dc:type rdf:resource="http://purl.org/dc/dcmitype/StillImage"/>
    <dc:title/>
   </cc:Work>
  </rdf:RDF>
 </metadata>
 <path d="m287.06,10.26c-115.67-1.7564-226.12,77.64-262.42,187.29-36.875,102.57-5.6621,224.74,75.761,297.1,80.574,75.363,207.63,94.267,306.53,45.072,101.62-47.36,167.2-160.66,157-272.49-7-111.07-87.78-212.49-194.33-244.45-26.67-8.33-54.61-12.53-82.54-12.52z" fill="#014377"/>
 <path d="m573.57,287.02c0,158.27-128.3,286.58-286.56,286.58-158.27-0.01-286.56-128.31-286.56-286.58s128.3-286.58,286.56-286.58c158.27,0,286.56,128.3,286.56,286.58z" stroke-dashoffset="0" stroke="#000000" stroke-linecap="square" stroke-miterlimit="4" stroke-dasharray="none" stroke-width="0.88582665" fill="none"/>
 <path fill="#ffffff" d="m286.66,80.271c-28.93-0.20014-59.121-1.3797-85.569,12.543-32.892,15.811-56.16,48.106-62.809,83.792-11.434,9.5219-9.6399,24.493-9.4031,39.124,0.82007,7.824,0.90625,15.134-8.7396,15.633-21.042,8.2183-42.603,28.864-36.803,53.533,4.7597,28.729,9.5112,57.835,19.038,85.401,11.566,22.423,38.834,26.127,61.511,25.187,9.3263-2.9527,9.9684,6.583,12.775,13.007,13.665,31.716,35.275,63.239,67.534,78.013,28.545,10.677,61.017,9.1166,89.404-1.138,18.274-10.417,33.447-26.396,46.25-42.906,11.798-13.637,13.899-37.69,27.162-47.291,25.849,2.7709,59.362-4.4015,67.744-32.74,6.2224-28.036,13.013-56.16,16.581-84.655,0.29801-25.978-24.437-42.812-46.894-49.595-0.65184-14.033,1.6206-28.556-1.7616-42.192-15.727-15.338-12.43-43.749-29.84-59.74-24.251-32.181-65.261-48.482-104.98-45.937-7.066-0.04492-14.132-0.04149-21.198-0.03742zm0.375,16.312c35.657-0.35649,75.002,3.3619,102.07,29.318,15.593,15.295,24.25,36.788,28.994,57.776-18.473-25.739-39.527-52.155-70.038-64.041-53.34-24.329-121-14.092-162.63,27.985-11.253,7.4446-24.423,33.504-29.412,33.802,6.3834-30.407,23.52-60.549,53.726-72.322,23.815-12.071,51.236-12.034,77.289-12.518zm0.4375,25.844c28.855-0.11062,57.06,9.8313,79.679,27.701,19.933,14.89,35.306,36.684,43.025,60.37,7.1621,25.316,10.058,53.584,0.15468,78.562-15.357,2.445-22.264,29.791-9.6884,39.396,0.22578,7.9138-3.9602,17.124-5.4369,25.537-8.738,38.188-20.06,78.898-51.534,104.91-26.059,21.623-64.647,23.439-95.186,11.691-34.048-17.934-55.293-54.215-63.32-90.997-3.2864-17.639-15.103-36.818-10.818-54.08,8.847-16.982-6.4125-32.16-14.542-43.579-10.106-46.141,5.3926-97.706,42.426-127.96,16.346-15.193,37.105-24.153,58.328-29.649,8.887-1.4493,17.917-1.9106,26.912-1.9029z"/>
</svg>
